<?xml version="1.0" encoding="utf-8"?>
<!-- Generator: Adobe Illustrator 24.3.0, SVG Export Plug-In . SVG Version: 6.00 Build 0)  -->
<svg version="1.1" id="Layer_1" xmlns="http://www.w3.org/2000/svg" xmlns:xlink="http://www.w3.org/1999/xlink" x="0px" y="0px"
	 viewBox="0 0 64.82 15.51" style="enable-background:new 0 0 64.82 15.51;" xml:space="preserve">
<style type="text/css">
	.st0{fill:#1C75BC;}
	.st1{fill:url(#XMLID_2_);}
	.st2{fill:url(#XMLID_3_);}
	.st3{fill:url(#XMLID_4_);}
	.st4{fill:url(#XMLID_5_);}
	.st5{fill:url(#XMLID_6_);}
</style>
<g id="XMLID_177_">
	<path id="XMLID_188_" class="st0" d="M25.64,15.51h-1.51v-4.63l-2.68,4.51l-2.68-4.51v4.63h-1.51v-7.6h1.58l2.61,4.39l2.62-4.39
		h1.57V15.51z"/>
	<path id="XMLID_186_" class="st0" d="M33.16,9.68h-5.38v1.14h5.03v1.78h-5.03v1.14h5.37v1.77h-6.87v-7.6h6.89V9.68z"/>
	<path id="XMLID_184_" class="st0" d="M40.93,9.68h-2.91v5.83h-1.51V9.68h-2.91V7.91h7.33V9.68z"/>
	<path id="XMLID_182_" class="st0" d="M49.48,15.51h-1.51V13.1h-3.96v-1.78h3.96v-1.07c0-0.38-0.11-0.58-0.33-0.58h-4.27
		c-0.21,0-0.31,0.19-0.31,0.58v5.25h-1.51v-5.26c0-0.64,0.17-1.19,0.51-1.65c0.34-0.46,0.78-0.69,1.31-0.69h4.27
		c0.54,0,0.98,0.23,1.32,0.69c0.34,0.46,0.51,1.01,0.51,1.65V15.51z"/>
	<path id="XMLID_180_" class="st0" d="M56.99,9.68h-5.38v1.14h5.03v1.78h-5.03v1.14h5.37v1.77h-6.87v-7.6h6.89V9.68z"/>
	<path id="XMLID_178_" class="st0" d="M64.82,15.51h-1.96l-1.73-2.44l-1.73,2.44h-1.96l2.71-3.85l-2.63-3.75h1.96l1.66,2.37
		l1.66-2.37h1.96l-2.63,3.75L64.82,15.51z"/>
</g>
<g id="XMLID_155_">
	
		<linearGradient id="XMLID_2_" gradientUnits="userSpaceOnUse" x1="-200.2939" y1="521.8411" x2="-217.9055" y2="524.2291" gradientTransform="matrix(0.7071 0.7071 0.7071 -0.7071 -213.693 524.0557)">
		<stop  offset="0" style="stop-color:#61CDF6"/>
		<stop  offset="0.1186" style="stop-color:#60C5F1"/>
		<stop  offset="0.3003" style="stop-color:#5AB6E7"/>
		<stop  offset="0.5224" style="stop-color:#529FD7"/>
		<stop  offset="0.7741" style="stop-color:#4A81C2"/>
		<stop  offset="1" style="stop-color:#4066B0"/>
	</linearGradient>
	<path id="XMLID_176_" class="st1" d="M13.84,14.85L1.39,3.2C0.5,2.37,0,1.21,0,0l0,0h7.12l0,0c0.76,0,1.45,0.48,1.71,1.19
		L13.84,14.85L13.84,14.85z"/>
	
		<linearGradient id="XMLID_3_" gradientUnits="userSpaceOnUse" x1="-199.809" y1="513.1782" x2="-219.894" y2="525.4595" gradientTransform="matrix(0.7071 0.7071 0.7071 -0.7071 -213.693 524.0557)">
		<stop  offset="0" style="stop-color:#61CDF6"/>
		<stop  offset="0.1186" style="stop-color:#60C5F1"/>
		<stop  offset="0.3003" style="stop-color:#5AB6E7"/>
		<stop  offset="0.5224" style="stop-color:#529FD7"/>
		<stop  offset="0.7741" style="stop-color:#4A81C2"/>
		<stop  offset="1" style="stop-color:#4066B0"/>
	</linearGradient>
	<path id="XMLID_175_" class="st2" d="M0,14.3V2.97l13.41,12.54l-12.2,0C0.54,15.51,0,14.97,0,14.3z"/>
	
		<linearGradient id="XMLID_4_" gradientUnits="userSpaceOnUse" x1="625.8987" y1="-4.3589" x2="631.0443" y2="-16.8105" gradientTransform="matrix(1 0 0 -1 -614.6258 -5.7411)">
		<stop  offset="0" style="stop-color:#61CDF6"/>
		<stop  offset="0.1186" style="stop-color:#60C5F1"/>
		<stop  offset="0.3003" style="stop-color:#5AB6E7"/>
		<stop  offset="0.5224" style="stop-color:#529FD7"/>
		<stop  offset="0.7741" style="stop-color:#4A81C2"/>
		<stop  offset="1" style="stop-color:#4066B0"/>
	</linearGradient>
	<path id="XMLID_174_" class="st3" d="M14.72,14.96L9.22,0h5.19c0.61,0,1.1,0.49,1.1,1.1v14.42l0,0
		C15.16,15.51,14.84,15.29,14.72,14.96z"/>
	<g id="XMLID_172_">
		
			<linearGradient id="XMLID_5_" gradientUnits="userSpaceOnUse" x1="616.3777" y1="-15.1106" x2="636.5903" y2="-14.5989" gradientTransform="matrix(1 0 0 -1 -614.6258 -5.7411)">
			<stop  offset="0" style="stop-color:#61CDF6"/>
			<stop  offset="0.1186" style="stop-color:#60C5F1"/>
			<stop  offset="0.3003" style="stop-color:#5AB6E7"/>
			<stop  offset="0.5224" style="stop-color:#529FD7"/>
			<stop  offset="0.7741" style="stop-color:#4A81C2"/>
			<stop  offset="1" style="stop-color:#4066B0"/>
		</linearGradient>
		<polygon id="XMLID_173_" class="st4" points="13.41,15.51 0,5.44 0,2.97 		"/>
	</g>
	<g id="XMLID_170_">
		
			<linearGradient id="XMLID_6_" gradientUnits="userSpaceOnUse" x1="622.4096" y1="-6.4987" x2="626.4813" y2="-14.8119" gradientTransform="matrix(1 0 0 -1 -614.6258 -5.7411)">
			<stop  offset="0" style="stop-color:#61CDF6"/>
			<stop  offset="0.1186" style="stop-color:#60C5F1"/>
			<stop  offset="0.3003" style="stop-color:#5AB6E7"/>
			<stop  offset="0.5224" style="stop-color:#529FD7"/>
			<stop  offset="0.7741" style="stop-color:#4A81C2"/>
			<stop  offset="1" style="stop-color:#4066B0"/>
		</linearGradient>
		<path id="XMLID_171_" class="st5" d="M7.12,0c0.76,0,1.45,0.48,1.71,1.19l5.02,13.66L6.64,0H7.12z"/>
	</g>
</g>
</svg>
