<?xml version="1.0" encoding="utf-8"?>
<!-- Generator: Adobe Illustrator 24.3.0, SVG Export Plug-In . SVG Version: 6.00 Build 0)  -->
<svg version="1.1" id="Layer_1" xmlns="http://www.w3.org/2000/svg" xmlns:xlink="http://www.w3.org/1999/xlink" x="0px" y="0px"
	 viewBox="0 0 957.4 206" style="enable-background:new 0 0 957.4 206;" xml:space="preserve">
<style type="text/css">
	.st0{fill:#F0B90B;}
</style>
<g>
	<path class="st0" d="M279.3,48.6h28.5l-0.2,0.8L263.4,96l20.6,48.2l-0.2,0.6h-28.5l-12.2-32.2l-29.5,32.2h-28.5l0.2-0.6L231.9,96
		l-19.1-46.6l0.2-0.8h28.5l10.2,32.6L279.3,48.6z"/>
	<path class="st0" d="M381.8,132.5c-14,10.9-26.9,15.2-41.1,15.2c-27.9,0-46.6-16.8-37.4-50.9c9.1-34.1,36.8-50.9,64.7-50.9
		c13.6,0,23.1,3.9,30.9,14.2l-19.2,15.8c-4.3-5.1-10.6-7.6-17.3-7.6c-16,0-30.8,11.7-35.3,28.5c-4.9,18.3,5,28.1,19.8,28.1
		c7.6,0,15.8-2.1,23.2-8L381.8,132.5z"/>
	<path class="st0" d="M449.3,8.3L435,61.7c11.6-11.1,23-14.4,33.9-14.4c27.3,0,34.4,18.5,26.8,46.8l-13.6,50.7h-23.8l13.5-50.5
		c4.7-17.5-2.5-25-15.1-25c-14,0-27,11.9-30.8,26.3l-13.2,49.1H389L425.6,8.3H449.3z"/>
	<path class="st0" d="M604.2,48.6h22.8l-25.8,96.1h-22.4l2.6-14c-8.5,11.3-25,16.8-35.7,17c-28.5,0.2-44.9-17.4-35.8-51.1
		c8.9-33.1,35.6-50.5,63.6-50.3c12.9,0,23.5,6,26.4,15.6L604.2,48.6z M533.7,96.6c-4.9,18.3,4.8,29.2,20.6,29.2
		c37.4,0,53.1-58.3,15.6-58.3C554.1,67.5,538.6,78.3,533.7,96.6z"/>
	<path class="st0" d="M692.1,144.7l13.5-50.3c3.9-14.6-1.1-25.7-16.3-25.7c-14.6,0-27.9,12.3-31.8,26.9l-13.2,49.1h-23.6l25.8-96.3
		h21.3l-1.9,13.1c12.3-9.6,23.4-14.4,35.4-14.4c22.6,0,36.2,17,28.1,47.2l-13.5,50.5H692.1z"/>
	<path class="st0" d="M840.2,38.9l14,13.3l-14.4,13.6c5.2,8.4,5.3,17.9,2.5,28.5c-3.2,11.9-12.2,28.7-29.9,35.9
		c13.8,8,14.7,19.5,11.4,31.8c-7.1,26.5-31.8,42.9-59.6,42.9c-27.9,0-44.2-17-37.2-42.9h23.6c-3.3,12.5,6,20.7,19.6,20.7
		s26.4-7.4,29.9-20.7c3.6-13.3-7.3-19.3-19.2-19.3c-30,0-43.8-18.3-35.8-48.4c8-30,34.9-48.7,61.8-48.7c7.6,0,15.1,1,20.6,5.5
		L840.2,38.9z M768.6,94.3c-4.5,16.8,4.2,26.7,18,26.7c13.6,0,27.7-10.1,32.1-26.7c4.4-16.6-4-27.1-17.7-27.1
		C787.2,67.2,773.1,77.5,768.6,94.3z"/>
	<path class="st0" d="M874.9,105.2c-1.6,11.9,6.4,20.5,23.2,20.5c8.8,0,21.2-3.3,28.1-9l11.2,15c-13,10.5-30.9,15.6-45.5,15.6
		c-33.1,0-47.3-20.5-39.1-51.3c7.8-29.2,33.4-50.3,64.6-50.3c32.2,0,46.9,19.9,32.6,59.5H874.9z M932.4,85.5
		c1.8-12.5-6.3-18.7-19.9-18.7c-12.9,0-25.1,6.2-31.9,18.7H932.4z"/>
	<path class="st0" d="M48.3,93.8l11-41c2.9-10.7,13.9-19.4,24.6-19.4h87.4L179.6,2H63.5C47.1,2,30.1,15.4,25.7,31.8L3.4,114.9
		c-4.4,16.4,5.4,29.8,21.8,29.8h116.1l8.4-31.5H62.5C51.7,113.2,45.4,104.5,48.3,93.8z"/>
	<polygon class="st0" points="108.2,57.6 99.7,89.1 184.1,89.1 192.6,57.6 	"/>
</g>
</svg>
